<svg width="50" height="49" viewBox="0 0 50 49" fill="none" xmlns="http://www.w3.org/2000/svg">
<path d="M37.5 24.5C37.5 19.6817 34.6667 15.5439 30.5556 13.5294V19.5456L37.3611 26.215C37.4444 25.6706 37.5 25.0989 37.5 24.5V24.5ZM44.4444 24.5C44.4444 27.0589 43.8889 29.4544 42.9444 31.6867L47.1389 35.7972C48.9722 32.4217 50 28.5833 50 24.5C50 12.8489 41.6944 3.10333 30.5556 0.626111V6.23389C38.5833 8.575 44.4444 15.8706 44.4444 24.5ZM3.52778 0L0 3.45722L13.1389 16.3333H0V32.6667H11.1111L25 46.2778V27.9572L36.8056 39.5267C34.9444 40.9422 32.8611 42.0583 30.5556 42.7389V48.3467C34.3889 47.5028 37.8611 45.7606 40.8056 43.4194L46.4722 49L50 45.5428L25 21.0428L3.52778 0ZM25 2.72222L19.1944 8.41167L25 14.1011V2.72222Z" fill="#818AD8"/>
</svg>
