<svg width="55" height="54" viewBox="0 0 55 54" fill="none" xmlns="http://www.w3.org/2000/svg">
<path d="M26.35 22.7536L25 21.4282L18.85 15.39L15 11.61L5.95 2.72455L3.175 0L0 3.11727L5.025 8.05091L5 49.7536L15 39.9355H37.5L51.825 54L55 50.8827L43.85 39.9355L26.35 22.7536ZM20 30.1173H15V25.2082H20V30.1173ZM15 22.7536V17.8445L20 22.7536H15ZM50 0.662727H10.2L25 15.1936V10.4809H45V15.39H25.2L27.7 17.8445H45V22.7536H32.7L50.175 39.9109C52.85 39.8127 55 37.6773 55 35.0264V5.57182C55 2.87182 52.75 0.662727 50 0.662727Z" fill="#818AD8"/>
</svg>
