<svg width="41" height="56" viewBox="0 0 41 56" fill="none" xmlns="http://www.w3.org/2000/svg">
<path d="M20.5 12.7273V20.3636L30.75 10.1818L20.5 0V7.63636C9.17375 7.63636 0 16.7491 0 28C0 31.9964 1.17875 35.7127 3.1775 38.8436L6.91875 35.1273C5.76562 33.0145 5.125 30.5709 5.125 28C5.125 19.5745 12.0181 12.7273 20.5 12.7273ZM37.8225 17.1564L34.0812 20.8727C35.2087 23.0109 35.875 25.4291 35.875 28C35.875 36.4255 28.9819 43.2727 20.5 43.2727V35.6364L10.25 45.8182L20.5 56V48.3636C31.8263 48.3636 41 39.2509 41 28C41 24.0036 39.8213 20.2873 37.8225 17.1564Z" fill="#818AD8"/>
</svg>
